<svg xmlns="http://www.w3.org/2000/svg" viewBox="0 0 24 24" fill="none" stroke="#0A84FF" stroke-width="3" stroke-linecap="round" stroke-linejoin="round">
  <path d="M2 6c.6 0 1.2-.2 1.7-.6C4.8 4.6 6 4 7.5 4s2.7.6 3.8 1.4C11.8 5.8 12.4 6 13 6s1.2-.2 1.7-.6C15.8 4.6 17 4 18.5 4s2.7.6 3.8 1.4C22.8 5.8 23.4 6 24 6"/>
  <path d="M2 12c.6 0 1.2-.2 1.7-.6C4.8 10.6 6 10 7.5 10s2.7.6 3.8 1.4c.5.4 1.1.6 1.7.6s1.2-.2 1.7-.6C15.8 10.6 17 10 18.5 10s2.7.6 3.8 1.4c.5.4 1.1.6 1.7.6"/>
  <path d="M2 18c.6 0 1.2-.2 1.7-.6C4.8 16.6 6 16 7.5 16s2.7.6 3.8 1.4c.5.4 1.1.6 1.7.6s1.2-.2 1.7-.6C15.8 16.6 17 16 18.5 16s2.7.6 3.8 1.4c.5.4 1.1.6 1.7.6"/>
</svg>
